<mxfile host="app.diagrams.net" modified="2024-03-25T15:25:23.956Z" agent="Mozilla/5.0 (Windows NT 10.0; Win64; x64) AppleWebKit/537.36 (KHTML, like Gecko) Chrome/122.0.0.0 Safari/537.36" etag="dzvClIcmXjNBemnBbVhz" version="24.1.0" type="github">
  <diagram name="Page-1" id="f1b7ffb7-ca1e-a977-7cf5-a751b3c06c05">
    <mxGraphModel dx="1420" dy="1551" grid="1" gridSize="1.1810999999999998" guides="1" tooltips="1" connect="1" arrows="1" fold="1" page="1" pageScale="1" pageWidth="1169" pageHeight="827" background="none" math="0" shadow="0">
      <root>
        <mxCell id="0" />
        <mxCell id="1" parent="0" />
        <mxCell id="e92TdF2DJT4-CmjpMDWM-62" value="" style="verticalLabelPosition=bottom;html=1;verticalAlign=top;align=center;shape=mxgraph.floorplan.wall;fillColor=#1ba1e2;strokeColor=#006EAF;fontColor=#ffffff;" vertex="1" parent="1">
          <mxGeometry x="23.62" y="-812.6" width="1048.82" height="10" as="geometry" />
        </mxCell>
        <mxCell id="e92TdF2DJT4-CmjpMDWM-63" value="" style="verticalLabelPosition=bottom;html=1;verticalAlign=top;align=center;shape=mxgraph.floorplan.wallCorner;fillColor=strokeColor;direction=south;" vertex="1" parent="1">
          <mxGeometry x="1072.44" y="-813.78" width="100" height="100" as="geometry" />
        </mxCell>
        <mxCell id="e92TdF2DJT4-CmjpMDWM-64" value="" style="verticalLabelPosition=bottom;html=1;verticalAlign=top;align=center;shape=mxgraph.floorplan.wallCorner;fillColor=strokeColor;" vertex="1" parent="1">
          <mxGeometry x="1072.44" y="-712.2" width="100" height="168.89" as="geometry" />
        </mxCell>
        <mxCell id="e92TdF2DJT4-CmjpMDWM-65" value="" style="verticalLabelPosition=bottom;html=1;verticalAlign=top;align=center;shape=mxgraph.floorplan.doorRight;aspect=fixed;" vertex="1" parent="1">
          <mxGeometry x="1078.3400000000001" y="-800.7900000000001" width="80" height="85" as="geometry" />
        </mxCell>
        <mxCell id="e92TdF2DJT4-CmjpMDWM-66" value="" style="verticalLabelPosition=bottom;html=1;verticalAlign=top;align=center;shape=mxgraph.floorplan.wallCorner;fillColor=strokeColor;direction=south;" vertex="1" parent="1">
          <mxGeometry x="1072.44" y="-542.12" width="34.46" height="36.62" as="geometry" />
        </mxCell>
        <mxCell id="e92TdF2DJT4-CmjpMDWM-67" value="" style="verticalLabelPosition=bottom;html=1;verticalAlign=top;align=center;shape=mxgraph.floorplan.wall;fillColor=strokeColor;" vertex="1" parent="1">
          <mxGeometry x="1075.98" y="-531.49" width="87.4" height="63.11" as="geometry" />
        </mxCell>
        <mxCell id="e92TdF2DJT4-CmjpMDWM-68" value="" style="verticalLabelPosition=bottom;html=1;verticalAlign=top;align=center;shape=mxgraph.floorplan.wall;fillColor=strokeColor;direction=south;" vertex="1" parent="1">
          <mxGeometry x="1153.93" y="-493.7" width="10" height="283.46" as="geometry" />
        </mxCell>
        <mxCell id="e92TdF2DJT4-CmjpMDWM-69" value="" style="verticalLabelPosition=bottom;html=1;verticalAlign=top;align=center;shape=mxgraph.floorplan.wall;fillColor=strokeColor;" vertex="1" parent="1">
          <mxGeometry x="1113.78" y="-206.69" width="50.15" height="7.36" as="geometry" />
        </mxCell>
        <mxCell id="e92TdF2DJT4-CmjpMDWM-70" value="" style="verticalLabelPosition=bottom;html=1;verticalAlign=top;align=center;shape=mxgraph.floorplan.doorUneven;dx=0.5;rotation=-180;" vertex="1" parent="1">
          <mxGeometry x="1048.8200000000002" y="-264.57" width="62.65" height="67.98" as="geometry" />
        </mxCell>
        <mxCell id="e92TdF2DJT4-CmjpMDWM-71" value="" style="verticalLabelPosition=bottom;html=1;verticalAlign=top;align=center;shape=mxgraph.floorplan.wall;fillColor=strokeColor;" vertex="1" parent="1">
          <mxGeometry x="982.68" y="-206.59" width="63.38" height="10" as="geometry" />
        </mxCell>
        <mxCell id="e92TdF2DJT4-CmjpMDWM-72" value="" style="verticalLabelPosition=bottom;html=1;verticalAlign=top;align=center;shape=mxgraph.floorplan.wall;fillColor=strokeColor;direction=south;" vertex="1" parent="1">
          <mxGeometry x="982.68" y="-561.02" width="10" height="352.62" as="geometry" />
        </mxCell>
        <mxCell id="e92TdF2DJT4-CmjpMDWM-73" value="" style="verticalLabelPosition=bottom;html=1;verticalAlign=top;align=center;shape=mxgraph.floorplan.doorLeft;aspect=fixed;" vertex="1" parent="1">
          <mxGeometry x="995.98" y="-503.15" width="80" height="85" as="geometry" />
        </mxCell>
        <mxCell id="e92TdF2DJT4-CmjpMDWM-74" value="" style="verticalLabelPosition=bottom;html=1;verticalAlign=top;align=center;shape=mxgraph.floorplan.window;rotation=90;" vertex="1" parent="1">
          <mxGeometry x="913.42" y="-641.88" width="148.53" height="10" as="geometry" />
        </mxCell>
      </root>
    </mxGraphModel>
  </diagram>
</mxfile>
